<?xml version="1.0" encoding="iso-8859-1"?>
<!-- Generator: Adobe Illustrator 19.0.0, SVG Export Plug-In . SVG Version: 6.00 Build 0)  -->
<svg version="1.1" id="Capa_1" xmlns="http://www.w3.org/2000/svg" xmlns:xlink="http://www.w3.org/1999/xlink" x="0px" y="0px"
	 viewBox="0 0 512 512" style="enable-background:new 0 0 512 512;" xml:space="preserve">
<g>
	<g>
		<path d="M497,91H15c-8.284,0-15,6.716-15,15v300c0,8.284,6.716,15,15,15h482c8.284,0,15-6.716,15-15V106
			C512,97.716,505.284,91,497,91z M482,121v58.491c-29.344-5.98-52.51-29.147-58.491-58.491H482z M30,121h58.491
			C82.51,150.344,59.344,173.51,30,179.491V121z M30,391v-58.491c29.344,5.98,52.51,29.147,58.491,58.491H30z M482,391h-58.491
			c5.98-29.344,29.147-52.51,58.491-58.491V391z M482,302.076c-45.916,6.597-82.327,43.008-88.924,88.924H118.924
			c-6.597-45.916-43.008-82.327-88.924-88.924v-92.152c45.916-6.597,82.327-43.008,88.924-88.924h274.152
			c6.597,45.916,43.008,82.327,88.924,88.924V302.076z"/>
	</g>
</g>
<g>
	<g>
		<path d="M256,241c-8.271,0-15-6.729-15-15s6.729-15,15-15c6.045,0,11.473,3.598,13.828,9.166
			c3.227,7.629,12.026,11.198,19.658,7.972c7.63-3.227,11.199-12.029,7.972-19.658c-5.03-11.892-14.738-20.782-26.458-24.915V166
			c0-8.284-6.716-15-15-15s-15,6.716-15,15v17.58c-17.459,6.192-30,22.865-30,42.42c0,24.813,20.187,45,45,45
			c8.271,0,15,6.729,15,15c0,2.032-0.395,3.995-1.172,5.834C267.473,297.402,262.045,301,256,301
			c-6.045,0-11.473-3.598-13.828-9.166c-3.227-7.63-12.027-11.199-19.658-7.972c-7.63,3.227-11.199,12.029-7.972,19.658
			c5.03,11.892,14.738,20.782,26.458,24.915V346c0,8.284,6.716,15,15,15s15-6.716,15-15v-17.565
			c11.72-4.132,21.428-13.022,26.458-24.915c2.35-5.557,3.542-11.451,3.542-17.52C301,261.187,280.813,241,256,241z"/>
	</g>
</g>
<g>
</g>
<g>
</g>
<g>
</g>
<g>
</g>
<g>
</g>
<g>
</g>
<g>
</g>
<g>
</g>
<g>
</g>
<g>
</g>
<g>
</g>
<g>
</g>
<g>
</g>
<g>
</g>
<g>
</g>
</svg>
