<?xml version="1.0" encoding="iso-8859-1"?>
<!-- Generator: Adobe Illustrator 19.0.0, SVG Export Plug-In . SVG Version: 6.00 Build 0)  -->
<svg version="1.1" id="Capa_1" xmlns="http://www.w3.org/2000/svg" xmlns:xlink="http://www.w3.org/1999/xlink" x="0px" y="0px"
	 viewBox="0 0 512 512" style="enable-background:new 0 0 512 512;" xml:space="preserve">
<polygon style="fill:#ADB3BA;" points="486.4,154.667 256,0 25.6,154.667 "/>
<g>
	<polygon style="fill:#E8EAE9;" points="148.267,117.333 256,44.8 363.733,117.333 	"/>
	<path style="fill:#E8EAE9;" d="M490.667,154.667H19.2c-10.667,0-19.2,8.533-19.2,19.2s8.533,19.2,19.2,19.2h471.467
		c10.667,0,19.2-8.533,19.2-19.2S501.333,154.667,490.667,154.667z"/>
</g>
<g>
	<path style="fill:#ADB3BA;" d="M132.267,224h-70.4c-8.533,0-14.933-6.4-14.933-14.933l0,0c0-8.533,6.4-14.933,14.933-14.933h70.4
		c8.533,0,14.933,6.4,14.933,14.933l0,0C147.2,216.533,140.8,224,132.267,224z"/>
	<path style="fill:#ADB3BA;" d="M132.267,427.733h-70.4c-8.533,0-14.933-6.4-14.933-14.933l0,0c0-8.533,6.4-14.933,14.933-14.933
		h70.4c8.533,0,14.933,6.4,14.933,14.933l0,0C147.2,421.333,140.8,427.733,132.267,427.733z"/>
</g>
<rect x="67.2" y="224" style="fill:#E8EAE9;" width="64" height="173.867"/>
<g>
	<path style="fill:#ADB3BA;" d="M446.933,224h-70.4c-8.533,0-14.933-6.4-14.933-14.933l0,0c0-8.533,6.4-14.933,14.933-14.933h70.4
		c8.533,0,14.933,6.4,14.933,14.933l0,0C462.933,216.533,455.467,224,446.933,224z"/>
	<path style="fill:#ADB3BA;" d="M446.933,427.733h-70.4c-8.533,0-14.933-6.4-14.933-14.933l0,0c0-8.533,6.4-14.933,14.933-14.933
		h70.4c8.533,0,14.933,6.4,14.933,14.933l0,0C462.933,421.333,455.467,427.733,446.933,427.733z"/>
</g>
<rect x="381.867" y="224" style="fill:#E8EAE9;" width="64" height="173.867"/>
<g>
	<path style="fill:#ADB3BA;" d="M290.133,224h-70.4c-8.533,0-14.933-6.4-14.933-14.933l0,0c0-8.533,6.4-14.933,14.933-14.933h70.4
		c8.533,0,14.933,6.4,14.933,14.933l0,0C305.067,216.533,298.667,224,290.133,224z"/>
	<path style="fill:#ADB3BA;" d="M290.133,427.733h-70.4c-8.533,0-14.933-6.4-14.933-14.933l0,0c0-8.533,6.4-14.933,14.933-14.933
		h70.4c8.533,0,14.933,6.4,14.933,14.933l0,0C305.067,421.333,298.667,427.733,290.133,427.733z"/>
</g>
<g>
	<rect x="224" y="224" style="fill:#E8EAE9;" width="64" height="173.867"/>
	<rect x="28.8" y="427.733" style="fill:#E8EAE9;" width="454.4" height="27.733"/>
	<rect y="484.267" style="fill:#E8EAE9;" width="512" height="27.733"/>
</g>
<g>
</g>
<g>
</g>
<g>
</g>
<g>
</g>
<g>
</g>
<g>
</g>
<g>
</g>
<g>
</g>
<g>
</g>
<g>
</g>
<g>
</g>
<g>
</g>
<g>
</g>
<g>
</g>
<g>
</g>
</svg>
